<?xml version="1.0" encoding="UTF-8"?>
<svg id="Layer_1" data-name="Layer 1" xmlns="http://www.w3.org/2000/svg" viewBox="0 0 1272.26 323.3">
  <defs>
    <style>
      .cls-1 {
        fill: #262626;
      }
    </style>
  </defs>
  <path class="cls-1" d="M153.88,270.67l-56.14-173.93c-8.02-24.56-15.04-46.62-38.59-46.62-21.05,0-29.57,15.54-29.57,38.6v229.57H0V54.13C0,22.55,12.03,0,41.1,0,68.67,0,80.2,21.55,93.23,61.15l52.13,160.9c9.02,28.07,17.54,51.13,38.59,51.13,18.05,0,25.06-14.04,25.06-38.09V55.64C209.02,23.06,222.05,0,252.62,0s39.6,26.57,58.65,62.15l105.26,202.5c5.01,9.52,7.01,19.05,7.01,27.07,0,18.55-11.53,31.58-33.08,31.58-23.56,0-36.09-14.04-41.1-44.11l-28.07-165.91c-6.02-36.09-19.55-63.16-50.12-63.16-23.06,0-32.58,15.54-32.58,39.6v185.96c0,28.57-11.03,47.62-36.59,47.62s-37.09-19.05-48.12-52.63Z"/>
  <path class="cls-1" d="M639.05,281.2l-12.54-39.1c-10.52-32.58-28.57-45.61-59.14-45.61h-39.6c-22.55,0-36.09,14.54-36.09,43.11v78.7h-28.07V45.11C463.62,14.53,479.16,0,502.21,0,522.26,0,536.8,15.54,556.34,44.61l149.37,223.05c5.51,8.52,8.02,16.54,8.02,24.06,0,18.55-16.04,31.58-32.58,31.58-23.56,0-34.09-16.04-42.1-42.1ZM527.77,190.47h39.6c21.05,0,33.08-8.52,33.08-25.56,0-7.02-2.01-15.54-6.02-24.56l-15.54-37.09c-10.53-28.07-26.06-57.14-52.13-57.14-23.05,0-35.08,15.54-35.08,38.09v60.65c0,31.08,13.53,45.61,36.09,45.61Z"/>
  <path class="cls-1" d="M780.18,0h0c12.2,0,22.09,9.89,22.09,22.09v296.19s-44.19,0-44.19,0V22.09C758.09,9.89,767.98,0,780.18,0Z"/>
  <path class="cls-1" d="M1039,281.2l-12.53-39.1c-10.52-32.58-28.57-45.61-59.15-45.61h-39.6c-22.55,0-36.09,14.54-36.09,43.11v78.7h-28.07V45.11C863.57,14.53,879.11,0,902.17,0,922.22,0,936.76,15.54,956.3,44.61l149.36,223.05c5.52,8.52,8.02,16.54,8.02,24.06,0,18.55-16.04,31.58-32.58,31.58-23.55,0-34.08-16.04-42.1-42.1ZM927.73,190.47h39.6c21.06,0,33.08-8.52,33.08-25.56,0-7.02-2-15.54-6.02-24.56l-15.54-37.09c-10.53-28.07-26.07-57.14-52.13-57.14-23.06,0-35.09,15.54-35.09,38.09v60.65c0,31.08,13.53,45.61,36.09,45.61Z"/>
  <g>
    <path class="cls-1" d="M1053.87,59.08V2.65c0-.94.77-1.71,1.71-1.71h29.33c.94,0,1.71.77,1.71,1.71v4.7c0,.94-.77,1.71-1.71,1.71h-21.97c-.51,0-.86.34-.86.85v15.65c0,.51.34.85.86.85h21.12c.94,0,1.71.77,1.71,1.71v4.7c0,.94-.77,1.71-1.71,1.71h-21.12c-.51,0-.86.34-.86.85v23.68c0,.94-.77,1.71-1.71,1.71h-4.79c-.94,0-1.71-.77-1.71-1.71Z"/>
    <path class="cls-1" d="M1091.07,58.57l15.22-56.26c.26-.94.94-1.37,1.71-1.37h7.52c.77,0,1.45.43,1.71,1.37l15.22,56.26c.34,1.03-.34,2.22-1.62,2.22h-5.04c-.77,0-1.37-.43-1.62-1.28l-3.51-12.57c-.17-.6-.43-.94-1.03-.94h-15.73c-.6,0-.85.34-1.03.94l-3.51,12.57c-.17.85-.85,1.28-1.62,1.28h-5.04c-1.28,0-1.97-1.2-1.62-2.22ZM1105.77,38.13h11.97c.6,0,.94-.51.77-1.11l-6.07-23.85c-.17-.77-1.2-.77-1.37,0l-6.07,23.85c-.17.6.17,1.11.77,1.11Z"/>
    <path class="cls-1" d="M1141.77,59.08V2.65c0-.94.77-1.71,1.71-1.71h16.67c10.26,0,17.87,7.35,17.87,17.96,0,7.35-4.27,12.65-9.58,15.9-1.37.6-1.28,1.37-.68,2.57l9.92,20.61c.77,1.54,0,2.82-1.45,2.82h-4.79c-1.28,0-1.88-.6-2.39-1.62l-10.26-21.46c-.26-.6-.6-.94-1.45-.94h-6.5c-.51,0-.85.34-.85.85v21.46c0,.94-.77,1.71-1.71,1.71h-4.79c-.94,0-1.71-.77-1.71-1.71ZM1150.84,28.73h9.23c5.3,0,9.49-4.45,9.49-9.83,0-5.99-4.19-9.83-9.49-9.83h-9.23c-.51,0-.85.34-.85.85v17.95c0,.51.34.86.85.86Z"/>
    <path class="cls-1" d="M1187.01,59.08V2.65c0-.94.77-1.71,1.71-1.71h7.52c.94,0,1.54.43,1.8,1.45l7.1,24.11c.26.77,1.2.85,1.45,0l7.01-24.11c.34-1.03.85-1.45,1.8-1.45h7.52c.94,0,1.71.77,1.71,1.71v56.43c0,.94-.77,1.71-1.71,1.71h-4.1c-.94,0-1.71-.77-1.71-1.71V16.93c0-.85-1.11-1.03-1.37-.17l-6.16,21.8c-.43,1.62-.94,2.05-1.88,2.05h-3.68c-.94,0-1.54-.43-1.97-2.05l-6.16-21.8c-.26-.85-1.37-.68-1.37.17v42.15c0,.94-.77,1.71-1.71,1.71h-4.1c-.94,0-1.71-.77-1.71-1.71Z"/>
    <path class="cls-1" d="M1233.61,43.43v-.51c0-.94.77-1.71,1.71-1.71h5.04c.94,0,1.71.77,1.71,1.71v.68c0,6.33,4.7,10.26,11.03,10.26s10.69-4.02,10.69-9.49-3.25-8.04-8.81-9.66l-6.75-1.97c-7.27-2.14-12.91-7.18-12.91-16.33C1235.32,6.58,1243.36,0,1253.45,0s17.96,6.41,17.96,16.16v.94c0,.94-.77,1.71-1.71,1.71h-4.87c-.94,0-1.71-.77-1.71-1.71v-.86c0-5.21-3.76-8.38-9.66-8.38s-9.66,3.08-9.66,8.29,3.68,7.61,8.21,9.06l6.5,1.97c8.29,2.48,13.77,7.52,13.77,16.84,0,10.34-7.87,17.7-19.07,17.7s-19.58-6.58-19.58-18.3Z"/>
  </g>
</svg>